HIERARCHY
ROOT root
{
	OFFSET	0	13.1	24.9
	CHANNELS 6  Xposition Yposition Zposition Xrotation Yrotation Zrotation
	JOINT spine_1
	{
		OFFSET	0	9.99999	0
		CHANNELS 3  Xrotation Yrotation Zrotation
		JOINT spine_2
		{
			OFFSET	0	112	-10
			CHANNELS 3  Xrotation Yrotation Zrotation
			JOINT spine_3
			{
				OFFSET	0	206.5	19.3
				CHANNELS 3  Xrotation Yrotation Zrotation
				JOINT spine_4
				{
					OFFSET	0	110.4	14.6
					CHANNELS 3  Xrotation Yrotation Zrotation
					JOINT neck_1
					{
						OFFSET	0	71.8	-50.3
						CHANNELS 3  Xrotation Yrotation Zrotation
						JOINT neck_2
						{
							OFFSET	0	86.2	-25.8
							CHANNELS 3  Xrotation Yrotation Zrotation
							JOINT head_ee
							{
								OFFSET	0	179.8	-8.7
								CHANNELS 3  Xrotation Yrotation Zrotation
								End Site
								{
									OFFSET	1	0	0
								}
							}
						}
					}
					JOINT left_clavicle
					{
						OFFSET	-43.2	22.4	-70.8
						CHANNELS 3  Xrotation Yrotation Zrotation
						JOINT left_shoulder
						{
							OFFSET	-93.9	-5.79999	48.7
							CHANNELS 3  Xrotation Yrotation Zrotation
							JOINT left_elbow
							{
								OFFSET	-291.4	-30.8	15.2
								CHANNELS 3  Xrotation Yrotation Zrotation
								JOINT left_lowarm_twist
								{
									OFFSET	-110.7	-3.89999	13.6
									CHANNELS 3  Xrotation Yrotation Zrotation
									JOINT left_hand
									{
										OFFSET	-110.7	-3.89999	13.6
										CHANNELS 3  Xrotation Yrotation Zrotation
										JOINT left_ee
										{
											OFFSET	-80.8	-5.10001	12.1
											CHANNELS 3  Xrotation Yrotation Zrotation
											End Site
											{
												OFFSET	1	0	0
											}
										}
									}
								}
							}
						}
					}
					JOINT right_clavicle
					{
						OFFSET	43.2	22.4	-70.8
						CHANNELS 3  Xrotation Yrotation Zrotation
						JOINT right_shoulder
						{
							OFFSET	93.9	-5.79999	48.7
							CHANNELS 3  Xrotation Yrotation Zrotation
							JOINT right_elbow
							{
								OFFSET	291.4	-30.8	15.2
								CHANNELS 3  Xrotation Yrotation Zrotation
								JOINT right_lowarm_twist
								{
									OFFSET	110.7	-3.89999	13.6
									CHANNELS 3  Xrotation Yrotation Zrotation
									JOINT right_hand
									{
										OFFSET	110.7	-3.89999	13.6
										CHANNELS 3  Xrotation Yrotation Zrotation
										JOINT right_ee
										{
											OFFSET	80.8	-5.10001	12.1
											CHANNELS 3  Xrotation Yrotation Zrotation
											End Site
											{
												OFFSET	1	0	0
											}
										}
									}
								}
							}
						}
					}
				}
			}
		}
	}
	JOINT left_hip
	{
		OFFSET	-82.8	-127.5	0.300001
		CHANNELS 3  Xrotation Yrotation Zrotation
		JOINT left_knee
		{
			OFFSET	-28.2	-396.7	2.2
			CHANNELS 3  Xrotation Yrotation Zrotation
			JOINT left_ankle
			{
				OFFSET	-11.7	-411.3	35.4
				CHANNELS 3  Xrotation Yrotation Zrotation
				JOINT left_toes
				{
					OFFSET	0	-60	-88.6
					CHANNELS 3  Xrotation Yrotation Zrotation
					JOINT left_foot_ee
					{
						OFFSET	-22.5	-16.5	-42.2
						CHANNELS 3  Xrotation Yrotation Zrotation
						End Site
						{
							OFFSET	1	0	0
						}
					}
				}
			}
		}
	}
	JOINT right_hip
	{
		OFFSET	82.8	-127.5	0.300001
		CHANNELS 3  Xrotation Yrotation Zrotation
		JOINT right_knee
		{
			OFFSET	28.2	-396.7	2.2
			CHANNELS 3  Xrotation Yrotation Zrotation
			JOINT right_ankle
			{
				OFFSET	11.7	-411.3	35.4
				CHANNELS 3  Xrotation Yrotation Zrotation
				JOINT right_toes
				{
					OFFSET	0	-60	-88.6
					CHANNELS 3  Xrotation Yrotation Zrotation
					JOINT right_foot_ee
					{
						OFFSET	22.5	-16.5	-42.2
						CHANNELS 3  Xrotation Yrotation Zrotation
						End Site
						{
							OFFSET	1	0	0
						}
					}
				}
			}
		}
	}
}
MOTION
Frames: 13
Frame Time: 0.02
2800.94 716.97 -1473.77 10.7493152622 55.3684160062 -10.3221657743 -3.82399 0.108452 0.569094 -3.82381 0.0720199 0.574841 -3.8228 -0.0887747 0.572493 -3.82326 0.00275248 0.579329 -16.0119 17.9003 3.92999 -17.1098 32.0917 10.3803 -0.0 0.0 -0.0 5.31171 8.76396 10.3916 15.7282 -7.63708 56.1054 3.93184 -62.8054 2.40085 -9.97808 -0.45648 1.18962 2.70437 -1.31592 17.8607 -0.0 0.0 -0.0 10.88 12.8011 -21.729 -18.6227 9.41159 -56.4453 0.606337 16.7184 -0.0890955 70.5025 2.79268 7.98647 -3.38399 -28.819 6.99164 0.0 0.0 0.0 -27.9881 12.16 10.8654 -11.1142 0.295703 1.67736 39.9629 8.84045 -4.86561 -11.7645 0.0 0.0 -0.0 0.0 -0.0 27.3924 33.0176 -10.1689 -0.737286 -0.0296555 -0.109258 -17.7781 12.1088 -2.85688 -16.0752 0.0 0.0 0.0 0.0 0.0 
2780.42385936 721.138 -1484.72227707 10.529000918 56.088124972 -10.2902298474 -3.85582 0.190626 0.780489 -3.85549 0.140577 0.791036 -3.85297 -0.0827087 0.799161 -3.85385 0.0445377 0.802194 -16.6396 16.8191 4.45436 -17.6121 29.7993 10.5796 -0.0 0.0 -0.0 5.08452 10.4295 9.99061 13.2911 -7.26887 56.9323 3.79661 -61.9833 2.28102 -11.4371 -0.540378 1.35636 2.96698 -3.1937 18.9474 -0.0 0.0 -0.0 11.5137 14.0626 -23.1213 -17.8679 10.3586 -57.0111 0.553021 15.3205 -0.0743813 67.7349 2.50878 7.77321 -3.93084 -28.003 10.4863 0.0 0.0 0.0 -26.5572 11.5601 9.26259 -15.5795 0.322087 2.3618 38.1037 7.89295 -4.69497 -9.43054 0.0 0.0 -0.0 0.0 -0.0 26.4537 33.3463 -10.4807 -2.37616 -0.0905173 -0.353402 -16.7849 5.30832 -2.59692 -17.376 0.0 0.0 0.0 0.0 0.0 
2757.38464854 725.197 -1495.81860674 11.3088500701 55.5688433054 -11.5137700005 -3.88795 0.369134 1.04542 -3.88739 0.301867 1.06679 -3.88062 -0.00411087 1.10866 -3.8823 0.171022 1.0954 -16.2567 16.6524 3.98044 -17.1931 29.6954 9.96077 -0.0 0.0 -0.0 4.87616 12.0556 9.63125 10.4947 -6.69938 57.7378 3.53635 -60.2656 2.05309 -13.5979 -0.672387 1.59929 2.95564 -1.95341 19.3811 -0.0 0.0 -0.0 11.8317 12.8744 -23.8713 -17.031 11.0095 -57.1112 0.590761 16.312 -0.0846677 68.9237 2.62946 7.86648 -3.74765 -27.4526 9.81111 0.0 0.0 0.0 -25.9489 10.9824 8.12787 -19.9172 0.296615 3.02669 37.8102 7.51748 -4.6668 -9.17002 0.0 0.0 -0.0 0.0 -0.0 26.0081 33.4439 -10.2584 -5.99982 -0.200122 -0.898629 -15.5912 4.8288 -2.40526 -17.8781 0.0 0.0 0.0 0.0 0.0 
2757.72223847 725.197 -1496.47318895 11.068010945 54.720852411 -11.2202865554 -3.88795 0.369134 1.04542 -3.88739 0.301867 1.06679 -3.88062 -0.00411087 1.10866 -3.8823 0.171022 1.0954 -16.2567 16.6524 3.98044 -17.1931 29.6954 9.96077 -0.0 0.0 -0.0 4.87616 12.0556 9.63125 10.4947 -6.69938 57.7378 3.53635 -60.2656 2.05309 -13.5979 -0.672387 1.59929 2.95564 -1.95341 19.3811 -0.0 0.0 -0.0 11.8317 12.8744 -23.8713 -17.031 11.0095 -57.1112 0.590761 16.312 -0.0846677 68.9237 2.62946 7.86648 -3.74765 -27.4526 9.81111 0.0 0.0 0.0 -25.9489 10.9824 8.12787 -19.9172 0.296615 3.02669 37.8102 7.51748 -4.6668 -9.17002 0.0 0.0 -0.0 0.0 -0.0 26.0081 33.4439 -10.2584 -5.99982 -0.200122 -0.898629 -15.5912 4.8288 -2.40526 -17.8781 0.0 0.0 0.0 0.0 0.0 
2733.38634036 721.747 -1505.35942971 10.7809151097 54.482546847 -11.4534758085 -3.76949 0.229193 1.16078 -3.76875 0.15487 1.17301 -3.76438 -0.172365 1.17057 -3.76629 0.014654 1.1831 -16.5157 17.157 5.03724 -17.4792 30.1085 11.2126 -0.0 0.0 -0.0 3.43952 14.0042 7.25821 6.05818 -8.27354 59.6347 3.30748 -58.5891 1.85601 -14.0379 -0.700384 1.64814 1.40402 -2.701 8.31965 -0.0 0.0 -0.0 12.1354 14.1768 -24.5328 -16.3123 14.2597 -56.4932 0.629858 17.3287 -0.0959819 70.3287 2.77454 7.97348 -3.34175 -28.0666 7.20147 0.0 0.0 0.0 -24.9573 10.5075 7.43808 -22.2209 0.262647 3.37852 36.4835 4.32994 -4.54099 -7.27416 0.0 0.0 -0.0 0.0 -0.0 24.4607 32.699 -9.89744 -8.95597 -0.263853 -1.34774 -0.551073 -0.436959 -0.0815431 -23.7208 0.0 0.0 0.0 0.0 0.0 
2734.10696192 721.747 -1506.85676505 10.4587687335 53.2276831437 -11.0545712725 -3.76949 0.229193 1.16078 -3.76875 0.15487 1.17301 -3.76438 -0.172365 1.17057 -3.76629 0.014654 1.1831 -16.5157 17.157 5.03724 -17.4792 30.1085 11.2126 -0.0 0.0 -0.0 3.43952 14.0042 7.25821 6.05818 -8.27354 59.6347 3.30748 -58.5891 1.85601 -14.0379 -0.700384 1.64814 1.40402 -2.701 8.31965 -0.0 0.0 -0.0 12.1354 14.1768 -24.5328 -16.3123 14.2597 -56.4932 0.629858 17.3287 -0.0959819 70.3287 2.77454 7.97348 -3.34175 -28.0666 7.20147 0.0 0.0 0.0 -24.9573 10.5075 7.43808 -22.2209 0.262647 3.37852 36.4835 4.32994 -4.54099 -7.27416 0.0 0.0 -0.0 0.0 -0.0 24.4607 32.699 -9.89744 -8.95597 -0.263853 -1.34774 -0.551073 -0.436959 -0.0815431 -23.7208 0.0 0.0 0.0 0.0 0.0 
2705.51761029 724.348 -1516.0398822 11.4258065155 52.8601523593 -12.5410032518 -3.89292 0.269776 1.40796 -3.89184 0.179646 1.42227 -3.88558 -0.219821 1.41662 -3.88838 0.00664237 1.43355 -15.0816 18.0223 4.05389 -16.0581 32.1308 10.2283 -0.0 0.0 -0.0 3.46968 16.5333 7.37392 3.99308 -7.17259 60.4104 2.96541 -55.7439 1.5685 -12.5655 -0.608168 1.48384 1.72069 -3.52893 10.1352 -0.0 0.0 -0.0 12.3324 15.7206 -24.9336 -14.6311 14.3005 -57.6804 0.57625 15.9319 -0.0806384 69.6661 2.7058 7.92346 -3.69222 -25.5755 10.6484 0.0 0.0 0.0 -24.1206 10.9908 7.16396 -26.9753 0.147985 4.09892 36.122 3.17219 -4.50959 -7.31203 0.0 0.0 -0.0 0.0 -0.0 22.1707 32.5146 -9.04395 -12.6045 -0.31044 -1.90555 8.31564 1.2549 1.20435 -28.4365 0.0 0.0 0.0 0.0 0.0 
2705.75538036 724.348 -1516.57261189 11.3428110142 52.5461811086 -12.4366733285 -3.89292 0.269776 1.40796 -3.89184 0.179646 1.42227 -3.88558 -0.219821 1.41662 -3.88838 0.00664237 1.43355 -15.0816 18.0223 4.05389 -16.0581 32.1308 10.2283 -0.0 0.0 -0.0 3.46968 16.5333 7.37392 3.99308 -7.17259 60.4104 2.96541 -55.7439 1.5685 -12.5655 -0.608168 1.48384 1.72069 -3.52893 10.1352 -0.0 0.0 -0.0 12.3324 15.7206 -24.9336 -14.6311 14.3005 -57.6804 0.57625 15.9319 -0.0806384 69.6661 2.7058 7.92346 -3.69222 -25.5755 10.6484 0.0 0.0 0.0 -24.1206 10.9908 7.16396 -26.9753 0.147985 4.09892 36.122 3.17219 -4.50959 -7.31203 0.0 0.0 -0.0 0.0 -0.0 22.1707 32.5146 -9.04395 -12.6045 -0.31044 -1.90555 8.31564 1.2549 1.20435 -28.4365 0.0 0.0 0.0 0.0 0.0 
2690.70686731 725.003 -1519.38516586 10.6149597023 53.5547027626 -12.1394381154 -3.69795 0.249785 1.49154 -3.69672 0.154379 1.50441 -3.69077 -0.261724 1.48949 -3.69386 -0.0232302 1.51213 -13.6132 18.4855 5.14883 -14.3678 32.1385 10.9137 -0.0 0.0 -0.0 2.73605 17.0985 6.24345 1.81898 -8.55471 61.4952 2.53777 -51.4908 1.22398 -12.1782 -0.584612 1.44022 1.57767 -1.27885 10.0826 -0.0 0.0 -0.0 12.6214 16.3417 -25.5749 -12.9394 14.8174 -58.5369 0.553496 15.333 -0.0745068 69.3427 2.67246 7.89876 -3.90404 -26.1502 11.5022 0.0 0.0 0.0 -24.0594 12.2583 6.58256 -26.843 0.151981 4.07902 35.8493 -0.46462 -4.50413 -6.52805 0.0 0.0 -0.0 0.0 -0.0 20.8025 31.8956 -8.24017 -11.4642 -0.299698 -1.73092 12.0956 0.0290837 1.72225 -34.9764 0.0 0.0 0.0 0.0 0.0 
2677.961772 724.745 -1521.59627351 10.845999387 54.5144457846 -12.6519915082 -3.68398 0.318496 1.54324 -3.68268 0.219663 1.56037 -3.67458 -0.213717 1.5612 -3.67798 0.0354953 1.57535 -12.5617 18.4607 4.54544 -13.2109 32.277 10.0064 -0.0 0.0 -0.0 2.39731 17.6955 5.74663 0.113821 -8.43595 62.364 2.26299 -48.259 1.01379 -12.037 -0.576104 1.4243 1.23095 -0.642154 7.98987 -0.0 0.0 -0.0 12.9815 17.6168 -26.35 -10.2378 16.4494 -58.5812 0.53554 14.858 -0.0698305 69.6661 2.7058 7.92346 -3.95233 -25.8273 11.9816 0.0 0.0 0.0 -23.3152 11.9434 5.72121 -30.1747 0.0373344 4.57741 35.1904 -4.03792 -4.47899 -5.40874 0.0 0.0 -0.0 0.0 -0.0 19.4066 30.7976 -7.28699 -13.133 -0.314238 -1.98654 20.4373 -1.14747 2.79971 -40.0702 0.0 0.0 0.0 0.0 0.0 
2678.58103694 724.745 -1523.15907935 10.6574935133 53.7973167553 -12.4194489035 -3.68398 0.318496 1.54324 -3.68268 0.219663 1.56037 -3.67458 -0.213717 1.5612 -3.67798 0.0354953 1.57535 -12.5617 18.4607 4.54544 -13.2109 32.277 10.0064 -0.0 0.0 -0.0 2.39731 17.6955 5.74663 0.113821 -8.43595 62.364 2.26299 -48.259 1.01379 -12.037 -0.576104 1.4243 1.23095 -0.642154 7.98987 -0.0 0.0 -0.0 12.9815 17.6168 -26.35 -10.2378 16.4494 -58.5812 0.53554 14.858 -0.0698305 69.6661 2.7058 7.92346 -3.95233 -25.8273 11.9816 0.0 0.0 0.0 -23.3152 11.9434 5.72121 -30.1747 0.0373344 4.57741 35.1904 -4.03792 -4.47899 -5.40874 0.0 0.0 -0.0 0.0 -0.0 19.4066 30.7976 -7.28699 -13.133 -0.314238 -1.98654 20.4373 -1.14747 2.79971 -40.0702 0.0 0.0 0.0 0.0 0.0 
2666.10673592 725.091 -1530.02411449 10.428388508 54.3659615864 -12.6657572301 -3.67759 0.355857 1.64086 -3.67613 0.250739 1.66017 -3.66644 -0.210762 1.66571 -3.67031 0.0549128 1.67809 -13.3576 18.8891 5.14366 -14.1234 32.8699 10.9754 -0.0 0.0 -0.0 2.04773 18.4115 5.25105 -2.0624 -8.96746 63.0284 2.06329 -45.6205 0.867839 -12.0599 -0.577477 1.42687 0.943499 0.766416 6.62593 -0.0 0.0 -0.0 13.1459 18.9136 -26.6587 -7.97707 17.8677 -59.2893 0.55058 15.256 -0.0737376 70.152 2.75615 7.96022 -4.23694 -27.384 12.5984 0.0 0.0 0.0 -22.1276 12.4614 4.59659 -33.7372 -0.117126 5.10217 34.3374 -5.63096 -4.4184 -4.89072 0.0 0.0 -0.0 0.0 -0.0 18.3584 29.9562 -6.67112 -14.581 -0.32082 -2.20861 25.734 -2.37025 3.42451 -40.1466 0.0 0.0 0.0 0.0 0.0 
2646.1432232 726.163 -1534.31522519 10.242799097 54.354050228 -12.5532185892 -3.67181 0.427279 1.82751 -3.67 0.310144 1.85099 -3.65693 -0.205239 1.86553 -3.66178 0.0919093 1.87453 -12.4813 19.7747 4.8177 -13.2367 34.6062 10.6987 -0.0 0.0 -0.0 1.83278 19.2451 4.9774 -4.12605 -9.13678 63.6774 1.80178 -41.7466 0.687119 -12.9411 -0.631287 1.52597 0.773595 1.79511 5.90526 -0.0 0.0 -0.0 13.3848 19.8739 -27.1536 -6.38217 19.652 -59.5233 0.524535 14.5658 -0.0670358 69.7896 2.71856 7.93284 -4.24111 -27.6413 12.4526 0.0 0.0 0.0 -19.737 12.3885 3.01687 -37.8198 -0.333923 5.69064 34.1423 -6.93966 -4.42031 -5.11786 0.0 0.0 -0.0 0.0 -0.0 15.5991 27.7725 -4.8183 -14.3729 -0.320219 -2.17668 31.7121 -2.56289 4.07539 -39.7023 0.0 0.0 0.0 0.0 0.0 
